# xmcd CD database file
#
# Track frame offsets:
#	150
#	14362
#	28367
#	39222
#	50875
#	61722
#	73822
#	85432
#
# Disc length: 1284 seconds
#
# Revision: 0
# Processed by: cddbd v1.5.2PL0 Copyright (c) Steve Scherf et al.
# Submitted via: CDex 1.51
#
DISCID=6c050208
DTITLE=Various Artist - Country Hits Vol. 2
DYEAR=1992
DGENRE=Country
TTITLE0=Freddy Fender - Wasted Days And Wasted Nights
TTITLE1=Barbara Fairchild - Teddy Bear Song
TTITLE2=Ferlin Husky - Gone
TTITLE3=Donna Fargo - That Happiest Girl In The Whole U.S.A.
TTITLE4=Waylon Jennings - Sally Was A Good Old Girl
TTITLE5=Wanda Jackson - Right Or Wrong
TTITLE6=Sammi Smith - Help Me Make It Through The Night
TTITLE7=Hank Locklin - Send Me The Pillow You Dream On
EXTD=YEAR: 1992
EXTT0=
EXTT1=
EXTT2=
EXTT3=
EXTT4=
EXTT5=
EXTT6=
EXTT7=
PLAYORDER=
